<mxfile host="Electron" modified="2024-09-12T10:21:26.275Z" agent="Mozilla/5.0 (Windows NT 10.0; Win64; x64) AppleWebKit/537.36 (KHTML, like Gecko) draw.io/24.2.5 Chrome/120.0.6099.109 Electron/28.1.0 Safari/537.36" etag="lV5my-Gi0vTQNj4NpNlo" version="24.2.5" type="device">
  <diagram name="第 1 页" id="EiDt96_mZHtetzVq0ybi">
    <mxGraphModel dx="915" dy="593" grid="1" gridSize="10" guides="1" tooltips="1" connect="1" arrows="1" fold="1" page="1" pageScale="1" pageWidth="827" pageHeight="1169" math="0" shadow="0">
      <root>
        <mxCell id="0" />
        <mxCell id="1" parent="0" />
        <mxCell id="EDNoI6fu2e-nF2mETEI6-1" value="&lt;font color=&quot;#99004d&quot;&gt;1. 整体流程 √&lt;/font&gt;&lt;div&gt;&lt;font color=&quot;#99004d&quot;&gt;2. 如何配置Client，对接具体平台&lt;/font&gt;&lt;/div&gt;&lt;div&gt;&lt;font color=&quot;#99004d&quot;&gt;3. 怎么利用异步队列 √&lt;/font&gt;&lt;/div&gt;" style="text;html=1;align=center;verticalAlign=middle;resizable=0;points=[];autosize=1;strokeColor=none;fillColor=none;" parent="1" vertex="1">
          <mxGeometry x="10" y="53" width="200" height="60" as="geometry" />
        </mxCell>
        <mxCell id="2YlXyp2UaPCBPk_VRCPw-11" style="edgeStyle=orthogonalEdgeStyle;rounded=0;orthogonalLoop=1;jettySize=auto;html=1;" edge="1" parent="1" source="2YlXyp2UaPCBPk_VRCPw-2" target="2YlXyp2UaPCBPk_VRCPw-4">
          <mxGeometry relative="1" as="geometry" />
        </mxCell>
        <mxCell id="2YlXyp2UaPCBPk_VRCPw-2" value="SendService" style="rounded=0;whiteSpace=wrap;html=1;fontSize=13;fontStyle=1" vertex="1" parent="1">
          <mxGeometry x="80" y="240" width="100" height="50" as="geometry" />
        </mxCell>
        <mxCell id="2YlXyp2UaPCBPk_VRCPw-3" value="ChannelService" style="rounded=0;whiteSpace=wrap;html=1;fontSize=13;fontStyle=1" vertex="1" parent="1">
          <mxGeometry x="414" y="240" width="100" height="50" as="geometry" />
        </mxCell>
        <mxCell id="2YlXyp2UaPCBPk_VRCPw-12" style="edgeStyle=orthogonalEdgeStyle;rounded=0;orthogonalLoop=1;jettySize=auto;html=1;entryX=0;entryY=0.5;entryDx=0;entryDy=0;" edge="1" parent="1" source="2YlXyp2UaPCBPk_VRCPw-4" target="2YlXyp2UaPCBPk_VRCPw-3">
          <mxGeometry relative="1" as="geometry" />
        </mxCell>
        <mxCell id="2YlXyp2UaPCBPk_VRCPw-4" value="TemplateService" style="rounded=0;whiteSpace=wrap;html=1;fontSize=13;fontStyle=1" vertex="1" parent="1">
          <mxGeometry x="250" y="240" width="100" height="50" as="geometry" />
        </mxCell>
        <mxCell id="2YlXyp2UaPCBPk_VRCPw-7" value="LogService" style="rounded=0;whiteSpace=wrap;html=1;fontSize=13;fontStyle=1" vertex="1" parent="1">
          <mxGeometry x="240" y="360" width="100" height="50" as="geometry" />
        </mxCell>
        <mxCell id="2YlXyp2UaPCBPk_VRCPw-9" value="对谁，用什么渠道，发送什么内容" style="text;html=1;align=center;verticalAlign=middle;resizable=0;points=[];autosize=1;strokeColor=none;fillColor=none;" vertex="1" parent="1">
          <mxGeometry x="40" y="138" width="200" height="30" as="geometry" />
        </mxCell>
        <mxCell id="2YlXyp2UaPCBPk_VRCPw-14" value="doInit()&lt;div&gt;sendSms()&lt;/div&gt;&lt;div&gt;parseSmsReceiveStatus()&lt;/div&gt;&lt;div&gt;getSmsTemplate()&lt;/div&gt;" style="text;html=1;align=center;verticalAlign=middle;resizable=0;points=[];autosize=1;strokeColor=none;fillColor=none;" vertex="1" parent="1">
          <mxGeometry x="390" y="28" width="160" height="70" as="geometry" />
        </mxCell>
        <mxCell id="2YlXyp2UaPCBPk_VRCPw-15" value="渠道配置&lt;div&gt;情境配置&lt;/div&gt;" style="text;html=1;align=center;verticalAlign=middle;resizable=0;points=[];autosize=1;strokeColor=none;fillColor=none;" vertex="1" parent="1">
          <mxGeometry x="455" y="123" width="70" height="40" as="geometry" />
        </mxCell>
      </root>
    </mxGraphModel>
  </diagram>
</mxfile>
